<svg width="37" height="37" viewBox="0 0 37 37" fill="none" xmlns="http://www.w3.org/2000/svg">
<g clip-path="url(#clip0_847_21)">
<path d="M28.4311 17.5597C28.4311 13.9953 26.5599 10.8796 23.749 9.11008V26.0094C26.5599 24.2399 28.4311 21.1242 28.4311 17.5597Z" fill="#393935"/>
<path d="M19.8122 0.0931326C19.2111 0.0338664 18.6099 0 18.0003 0C17.3907 0 16.7811 0.0338664 16.1885 0.0931326H19.8206H19.8122Z" fill="#393935"/>
<path d="M23.749 0.956726V4.80056C28.8375 7.01881 32.4019 12.0903 32.4019 18C32.4019 23.9097 28.8375 28.9812 23.749 31.1994V35.0433C30.8694 32.6388 36.0002 25.9247 36.0002 18C36.0002 10.0753 30.8694 3.35278 23.749 0.956726Z" fill="#393935"/>
<path d="M18.4403 0H13.3518L0 13.3518V22.6482L13.3518 36H21.0988V0H18.4403ZM17.5005 32.4017H14.842L3.59831 21.158V14.842L14.7488 3.69144H17.492V32.4017H17.5005Z" fill="#393935"/>
</g>
<rect y="2.66272" width="3.76564" height="47.9352" transform="rotate(-45 0 2.66272)" fill="#393935"/>
<defs>
<clipPath id="clip0_847_21">
<rect width="36" height="36" fill="white"/>
</clipPath>
</defs>
</svg>
