<svg width="36" height="36" viewBox="0 0 36 36" fill="none" xmlns="http://www.w3.org/2000/svg">
<g clip-path="url(#clip0_300_23)">
<path d="M28.4308 17.5597C28.4308 13.9953 26.5597 10.8796 23.7488 9.11008V26.0094C26.5597 24.2399 28.4308 21.1242 28.4308 17.5597Z" fill="#393935"/>
<path d="M19.8118 0.0931326C19.2107 0.0338664 18.6096 0 18 0C17.3904 0 16.7808 0.0338664 16.1881 0.0931326H19.8203H19.8118Z" fill="#393935"/>
<path d="M23.7488 0.956726V4.80056C28.8372 7.01881 32.4016 12.0903 32.4016 18C32.4016 23.9097 28.8372 28.9812 23.7488 31.1994V35.0433C30.8692 32.6388 36 25.9247 36 18C36 10.0753 30.8692 3.35278 23.7488 0.956726Z" fill="#393935"/>
<path d="M18.4403 0H13.3518L0 13.3518V22.6482L13.3518 36H21.0988V0H18.4403ZM17.5005 32.4017H14.842L3.59831 21.158V14.842L14.7488 3.69144H17.492V32.4017H17.5005Z" fill="#393935"/>
</g>
<defs>
<clipPath id="clip0_300_23">
<rect width="36" height="36" fill="white"/>
</clipPath>
</defs>
</svg>
