<svg width="240" height="104" viewBox="0 0 240 104" fill="none" xmlns="http://www.w3.org/2000/svg">
<path d="M232.648 94.5469L232.688 95.3438C232.859 95.0469 233.083 94.8151 233.359 94.6484C233.641 94.4818 233.979 94.3958 234.375 94.3906C234.599 94.3906 234.799 94.4167 234.977 94.4688C235.159 94.5156 235.318 94.5859 235.453 94.6797C235.552 94.7526 235.641 94.8411 235.719 94.9453C235.802 95.0495 235.872 95.1667 235.93 95.2969C236.003 95.1771 236.089 95.0651 236.188 94.9609C236.286 94.8568 236.393 94.7656 236.508 94.6875C236.654 94.599 236.815 94.5286 236.992 94.4766C237.174 94.4245 237.372 94.3958 237.586 94.3906C237.878 94.3906 238.141 94.4349 238.375 94.5234C238.609 94.6068 238.807 94.7318 238.969 94.8984C239.146 95.0859 239.281 95.3307 239.375 95.6328C239.469 95.9297 239.516 96.2812 239.516 96.6875V103H238.141V96.6719C238.141 96.4948 238.12 96.3385 238.078 96.2031C238.036 96.0677 237.977 95.9557 237.898 95.8672C237.815 95.7839 237.711 95.7214 237.586 95.6797C237.466 95.638 237.326 95.6172 237.164 95.6172C236.992 95.6172 236.844 95.6406 236.719 95.6875C236.594 95.7344 236.49 95.7969 236.406 95.875C236.323 95.9583 236.258 96.0547 236.211 96.1641C236.164 96.2682 236.133 96.3854 236.117 96.5156C236.117 96.5417 236.117 96.5677 236.117 96.5938C236.117 96.6146 236.117 96.6406 236.117 96.6719V103H234.742V96.6641C234.742 96.487 234.721 96.3307 234.68 96.1953C234.643 96.0599 234.583 95.9479 234.5 95.8594C234.422 95.776 234.323 95.7161 234.203 95.6797C234.089 95.638 233.953 95.6172 233.797 95.6172C233.625 95.6172 233.474 95.638 233.344 95.6797C233.219 95.7161 233.112 95.7708 233.023 95.8438C232.956 95.901 232.896 95.9661 232.844 96.0391C232.797 96.112 232.758 96.1901 232.727 96.2734V103H231.352V94.5469H232.648Z" fill="black"/>
<path d="M221.969 98.6953C221.969 98.0859 222.057 97.5208 222.234 97C222.411 96.474 222.667 96.0182 223 95.6328C223.328 95.2474 223.729 94.9453 224.203 94.7266C224.677 94.5026 225.211 94.3906 225.805 94.3906C226.404 94.3906 226.94 94.5026 227.414 94.7266C227.893 94.9453 228.299 95.2474 228.633 95.6328C228.961 96.0182 229.214 96.474 229.391 97C229.568 97.5208 229.656 98.0859 229.656 98.6953V98.8672C229.656 99.4766 229.568 100.042 229.391 100.562C229.214 101.083 228.961 101.536 228.633 101.922C228.299 102.307 227.896 102.609 227.422 102.828C226.948 103.047 226.414 103.156 225.82 103.156C225.221 103.156 224.682 103.047 224.203 102.828C223.729 102.609 223.328 102.307 223 101.922C222.667 101.536 222.411 101.083 222.234 100.562C222.057 100.042 221.969 99.4766 221.969 98.8672V98.6953ZM223.414 98.8672C223.414 99.2839 223.464 99.6823 223.562 100.062C223.661 100.438 223.812 100.768 224.016 101.055C224.214 101.341 224.464 101.568 224.766 101.734C225.068 101.901 225.419 101.984 225.82 101.984C226.216 101.984 226.562 101.901 226.859 101.734C227.161 101.568 227.414 101.341 227.617 101.055C227.815 100.768 227.964 100.438 228.062 100.062C228.161 99.6823 228.211 99.2839 228.211 98.8672V98.6953C228.211 98.2839 228.159 97.8906 228.055 97.5156C227.956 97.1354 227.807 96.8021 227.609 96.5156C227.406 96.2292 227.154 96.0026 226.852 95.8359C226.555 95.6641 226.206 95.5781 225.805 95.5781C225.404 95.5781 225.055 95.6641 224.758 95.8359C224.461 96.0026 224.214 96.2292 224.016 96.5156C223.812 96.8021 223.661 97.1354 223.562 97.5156C223.464 97.8906 223.414 98.2839 223.414 98.6953V98.8672Z" fill="black"/>
<path d="M216.367 101.984C216.628 101.984 216.88 101.943 217.125 101.859C217.375 101.776 217.596 101.659 217.789 101.508C217.982 101.362 218.135 101.19 218.25 100.992C218.37 100.789 218.432 100.57 218.438 100.336H219.805C219.799 100.711 219.701 101.07 219.508 101.414C219.32 101.753 219.068 102.049 218.75 102.305C218.432 102.565 218.068 102.773 217.656 102.93C217.245 103.081 216.815 103.156 216.367 103.156C215.727 103.156 215.167 103.042 214.688 102.812C214.208 102.583 213.81 102.273 213.492 101.883C213.169 101.497 212.927 101.052 212.766 100.547C212.604 100.036 212.523 99.5 212.523 98.9375V98.6094C212.523 98.0521 212.604 97.5182 212.766 97.0078C212.927 96.4974 213.169 96.0469 213.492 95.6562C213.81 95.2708 214.208 94.9635 214.688 94.7344C215.167 94.5052 215.727 94.3906 216.367 94.3906C216.867 94.3906 217.326 94.4714 217.742 94.6328C218.164 94.7891 218.529 95.0026 218.836 95.2734C219.138 95.5495 219.375 95.875 219.547 96.25C219.719 96.625 219.805 97.026 219.805 97.4531H218.438C218.432 97.1979 218.375 96.9583 218.266 96.7344C218.161 96.5052 218.018 96.3047 217.836 96.1328C217.654 95.9609 217.435 95.8255 217.18 95.7266C216.93 95.6276 216.659 95.5781 216.367 95.5781C215.919 95.5781 215.542 95.6693 215.234 95.8516C214.932 96.0286 214.688 96.2604 214.5 96.5469C214.312 96.8385 214.177 97.1641 214.094 97.5234C214.016 97.8828 213.977 98.2448 213.977 98.6094V98.9375C213.977 99.3073 214.016 99.6745 214.094 100.039C214.177 100.398 214.312 100.721 214.5 101.008C214.682 101.299 214.924 101.536 215.227 101.719C215.534 101.896 215.914 101.984 216.367 101.984Z" fill="black"/>
<path d="M205.672 102.062C205.672 101.755 205.766 101.492 205.953 101.273C206.141 101.055 206.424 100.945 206.805 100.945C207.18 100.945 207.464 101.055 207.656 101.273C207.854 101.487 207.953 101.75 207.953 102.062C207.953 102.37 207.854 102.628 207.656 102.836C207.458 103.044 207.174 103.148 206.805 103.148C206.43 103.148 206.146 103.044 205.953 102.836C205.766 102.622 205.672 102.365 205.672 102.062Z" fill="black"/>
<path d="M200.711 98.8672C200.711 99.237 200.682 99.5938 200.625 99.9375C200.573 100.276 200.495 100.594 200.391 100.891C200.25 101.281 200.065 101.633 199.836 101.945C199.612 102.253 199.341 102.508 199.023 102.711C198.794 102.852 198.542 102.961 198.266 103.039C197.995 103.117 197.701 103.156 197.383 103.156C197.018 103.156 196.685 103.112 196.383 103.023C196.086 102.935 195.818 102.807 195.578 102.641C195.464 102.557 195.354 102.466 195.25 102.367C195.146 102.268 195.047 102.159 194.953 102.039L194.883 103H193.555V91H195V95.4531C195.12 95.3021 195.253 95.1667 195.398 95.0469C195.544 94.9219 195.701 94.8151 195.867 94.7266C196.076 94.6172 196.305 94.5339 196.555 94.4766C196.805 94.4193 197.076 94.3906 197.367 94.3906C197.732 94.3906 198.068 94.4401 198.375 94.5391C198.682 94.638 198.961 94.776 199.211 94.9531C199.435 95.1198 199.635 95.3229 199.812 95.5625C199.99 95.7969 200.146 96.0599 200.281 96.3516C200.422 96.6797 200.529 97.0443 200.602 97.4453C200.674 97.8411 200.711 98.2604 200.711 98.7031V98.8672ZM199.266 98.7031C199.266 98.4375 199.247 98.1797 199.211 97.9297C199.18 97.6745 199.13 97.4349 199.062 97.2109C198.969 96.9349 198.846 96.6823 198.695 96.4531C198.544 96.224 198.359 96.0443 198.141 95.9141C197.99 95.8203 197.82 95.7474 197.633 95.6953C197.445 95.6432 197.237 95.6172 197.008 95.6172C196.758 95.6172 196.529 95.651 196.32 95.7188C196.112 95.7812 195.927 95.8698 195.766 95.9844C195.599 96.1042 195.451 96.2448 195.32 96.4062C195.195 96.5625 195.089 96.7344 195 96.9219V100.617C195.094 100.805 195.203 100.979 195.328 101.141C195.458 101.297 195.607 101.435 195.773 101.555C195.94 101.674 196.128 101.768 196.336 101.836C196.544 101.898 196.773 101.93 197.023 101.93C197.263 101.93 197.482 101.901 197.68 101.844C197.878 101.781 198.055 101.693 198.211 101.578C198.419 101.432 198.594 101.247 198.734 101.023C198.875 100.799 198.987 100.549 199.07 100.273C199.138 100.065 199.188 99.8411 199.219 99.6016C199.25 99.362 199.266 99.1172 199.266 98.8672V98.7031Z" fill="black"/>
<path d="M189.492 103C189.435 102.891 189.388 102.755 189.352 102.594C189.32 102.427 189.297 102.255 189.281 102.078C189.135 102.224 188.971 102.362 188.789 102.492C188.612 102.622 188.417 102.737 188.203 102.836C187.984 102.935 187.753 103.013 187.508 103.07C187.263 103.128 187.003 103.156 186.727 103.156C186.279 103.156 185.872 103.091 185.508 102.961C185.148 102.831 184.844 102.654 184.594 102.43C184.339 102.211 184.141 101.951 184 101.648C183.865 101.341 183.797 101.01 183.797 100.656C183.797 100.193 183.888 99.7865 184.07 99.4375C184.258 99.0885 184.521 98.7969 184.859 98.5625C185.198 98.3333 185.604 98.1615 186.078 98.0469C186.557 97.9323 187.091 97.875 187.68 97.875H189.258V97.2109C189.258 96.9557 189.211 96.7266 189.117 96.5234C189.023 96.3203 188.891 96.1458 188.719 96C188.547 95.8594 188.336 95.75 188.086 95.6719C187.841 95.5938 187.565 95.5547 187.258 95.5547C186.971 95.5547 186.714 95.5911 186.484 95.6641C186.26 95.737 186.07 95.8333 185.914 95.9531C185.758 96.0729 185.635 96.2161 185.547 96.3828C185.464 96.5443 185.422 96.7135 185.422 96.8906H183.969C183.974 96.5833 184.052 96.2812 184.203 95.9844C184.359 95.6875 184.583 95.4193 184.875 95.1797C185.161 94.9453 185.51 94.7552 185.922 94.6094C186.339 94.4635 186.81 94.3906 187.336 94.3906C187.815 94.3906 188.26 94.4505 188.672 94.5703C189.083 94.6849 189.44 94.8594 189.742 95.0938C190.039 95.3333 190.273 95.6302 190.445 95.9844C190.617 96.3385 190.703 96.7526 190.703 97.2266V101.156C190.703 101.438 190.729 101.737 190.781 102.055C190.833 102.367 190.906 102.641 191 102.875V103H189.492ZM186.938 101.898C187.219 101.898 187.482 101.862 187.727 101.789C187.971 101.716 188.195 101.62 188.398 101.5C188.596 101.38 188.768 101.245 188.914 101.094C189.06 100.938 189.174 100.776 189.258 100.609V98.8984H187.914C187.414 98.8984 186.977 98.9427 186.602 99.0312C186.232 99.1146 185.938 99.2448 185.719 99.4219C185.562 99.5469 185.443 99.6953 185.359 99.8672C185.281 100.039 185.242 100.234 185.242 100.453C185.242 100.661 185.276 100.854 185.344 101.031C185.417 101.208 185.523 101.359 185.664 101.484C185.805 101.615 185.982 101.716 186.195 101.789C186.409 101.862 186.656 101.898 186.938 101.898Z" fill="black"/>
<path d="M174.555 91H178.875V101.75H181.633V103H174.555V101.75H177.43V92.2578H174.555V91Z" fill="black"/>
<path d="M168.453 103.156C167.859 103.156 167.312 103.055 166.812 102.852C166.318 102.648 165.893 102.365 165.539 102C165.185 101.635 164.909 101.203 164.711 100.703C164.513 100.203 164.414 99.6589 164.414 99.0703V98.7422C164.414 98.0599 164.523 97.4505 164.742 96.9141C164.961 96.3724 165.253 95.9141 165.617 95.5391C165.977 95.1693 166.385 94.8854 166.844 94.6875C167.307 94.4896 167.781 94.3906 168.266 94.3906C168.875 94.3906 169.406 94.4974 169.859 94.7109C170.318 94.9193 170.698 95.2083 171 95.5781C171.302 95.9531 171.526 96.3932 171.672 96.8984C171.823 97.4036 171.898 97.9505 171.898 98.5391V99.1875H165.859V99.2422C165.896 99.6536 165.977 100.016 166.102 100.328C166.232 100.641 166.409 100.917 166.633 101.156C166.862 101.411 167.138 101.612 167.461 101.758C167.784 101.904 168.141 101.977 168.531 101.977C169.047 101.977 169.505 101.872 169.906 101.664C170.307 101.456 170.641 101.18 170.906 100.836L171.789 101.523C171.508 101.951 171.086 102.331 170.523 102.664C169.966 102.992 169.276 103.156 168.453 103.156ZM168.266 95.5781C167.974 95.5781 167.698 95.6328 167.438 95.7422C167.177 95.8464 166.943 96 166.734 96.2031C166.526 96.4115 166.349 96.6667 166.203 96.9688C166.062 97.2656 165.964 97.6094 165.906 98H170.453V97.9297C170.453 97.6693 170.404 97.3906 170.305 97.0938C170.206 96.7917 170.068 96.5312 169.891 96.3125C169.714 96.0938 169.49 95.9167 169.219 95.7812C168.953 95.6458 168.635 95.5781 168.266 95.5781Z" fill="black"/>
<path d="M155.109 103V94.5469H156.406L156.508 95.7969C156.633 95.6198 156.768 95.4583 156.914 95.3125C157.065 95.1615 157.224 95.0312 157.391 94.9219C157.641 94.7552 157.911 94.6276 158.203 94.5391C158.5 94.4453 158.812 94.3958 159.141 94.3906C159.583 94.3906 159.984 94.4531 160.344 94.5781C160.708 94.7031 161.018 94.8984 161.273 95.1641C161.529 95.4297 161.724 95.7682 161.859 96.1797C162 96.5859 162.07 97.0703 162.07 97.6328V103H160.625V97.6641C160.625 97.2891 160.583 96.9714 160.5 96.7109C160.417 96.4505 160.294 96.2396 160.133 96.0781C159.966 95.9167 159.763 95.7995 159.523 95.7266C159.289 95.6536 159.018 95.6172 158.711 95.6172C158.445 95.6172 158.198 95.6562 157.969 95.7344C157.74 95.8073 157.529 95.9089 157.336 96.0391C157.18 96.1536 157.034 96.2865 156.898 96.4375C156.768 96.5885 156.654 96.7552 156.555 96.9375V103H155.109Z" fill="black"/>
<path d="M151.07 103L150.984 101.836C150.703 102.253 150.352 102.578 149.93 102.812C149.508 103.042 149.021 103.156 148.469 103.156C148.026 103.156 147.625 103.089 147.266 102.953C146.906 102.812 146.599 102.596 146.344 102.305C146.089 102.013 145.891 101.643 145.75 101.195C145.615 100.742 145.547 100.201 145.547 99.5703V94.5469H146.992V99.5859C146.992 100.044 147.029 100.424 147.102 100.727C147.174 101.029 147.284 101.268 147.43 101.445C147.576 101.628 147.753 101.755 147.961 101.828C148.174 101.901 148.419 101.938 148.695 101.938C149.018 101.938 149.307 101.901 149.562 101.828C149.818 101.75 150.039 101.643 150.227 101.508C150.383 101.398 150.518 101.268 150.633 101.117C150.753 100.961 150.852 100.792 150.93 100.609V94.5469H152.383V103H151.07Z" fill="black"/>
<path d="M139.312 92.5V94.5469H142.531V95.6641H139.312V100.258C139.312 100.586 139.354 100.857 139.438 101.07C139.521 101.284 139.635 101.453 139.781 101.578C139.927 101.708 140.094 101.799 140.281 101.852C140.474 101.904 140.677 101.93 140.891 101.93C141.047 101.93 141.208 101.922 141.375 101.906C141.542 101.885 141.706 101.862 141.867 101.836C142.023 101.81 142.169 101.784 142.305 101.758C142.445 101.727 142.56 101.701 142.648 101.68L142.852 102.703C142.732 102.776 142.586 102.841 142.414 102.898C142.242 102.951 142.055 102.995 141.852 103.031C141.648 103.073 141.432 103.104 141.203 103.125C140.979 103.146 140.755 103.156 140.531 103.156C140.156 103.156 139.805 103.104 139.477 103C139.154 102.891 138.872 102.719 138.633 102.484C138.393 102.255 138.203 101.958 138.062 101.594C137.927 101.224 137.859 100.779 137.859 100.258V95.6641H135.641V94.5469H137.859V92.5H139.312Z" fill="black"/>
<path d="M133.977 96.8359C133.961 97.2526 133.911 97.6797 133.828 98.1172C133.745 98.5495 133.62 98.9427 133.453 99.2969C133.281 99.651 133.063 99.9401 132.797 100.164C132.531 100.388 132.206 100.5 131.82 100.5C131.633 100.5 131.464 100.471 131.313 100.414C131.161 100.357 131.031 100.273 130.922 100.164C130.844 100.086 130.776 99.9974 130.719 99.8984C130.661 99.7943 130.615 99.6797 130.578 99.5547C130.495 99.6849 130.401 99.8047 130.297 99.9141C130.198 100.023 130.091 100.12 129.977 100.203C129.836 100.297 129.685 100.37 129.523 100.422C129.362 100.474 129.193 100.5 129.016 100.5C128.76 100.5 128.539 100.432 128.352 100.297C128.164 100.161 128.013 99.9714 127.898 99.7266C127.779 99.4818 127.695 99.1901 127.648 98.8516C127.607 98.513 127.602 98.1406 127.633 97.7344C127.68 97.1562 127.776 96.6354 127.922 96.1719C128.068 95.7031 128.258 95.3047 128.492 94.9766C128.721 94.6536 128.99 94.4062 129.297 94.2344C129.604 94.0573 129.943 93.9688 130.313 93.9688C130.661 93.9688 130.951 94.0391 131.18 94.1797C131.409 94.3151 131.591 94.4766 131.727 94.6641L131.383 98.6016C131.367 98.8151 131.372 98.9896 131.398 99.125C131.424 99.2552 131.464 99.3568 131.516 99.4297C131.563 99.5078 131.622 99.5599 131.695 99.5859C131.768 99.612 131.846 99.625 131.93 99.625C132.122 99.625 132.292 99.5521 132.438 99.4062C132.589 99.2552 132.714 99.0521 132.813 98.7969C132.911 98.5469 132.987 98.2526 133.039 97.9141C133.091 97.5755 133.12 97.2161 133.125 96.8359C133.146 96.1745 133.091 95.5807 132.961 95.0547C132.831 94.5286 132.633 94.0833 132.367 93.7188C132.096 93.3542 131.766 93.0755 131.375 92.8828C130.984 92.6901 130.539 92.5938 130.039 92.5938C129.534 92.5938 129.073 92.7083 128.656 92.9375C128.245 93.1615 127.875 93.4818 127.547 93.8984C127.198 94.3464 126.927 94.888 126.734 95.5234C126.542 96.1536 126.435 96.8464 126.414 97.6016C126.388 98.3099 126.438 98.9401 126.563 99.4922C126.688 100.044 126.888 100.51 127.164 100.891C127.44 101.276 127.792 101.57 128.219 101.773C128.651 101.971 129.159 102.07 129.742 102.07C129.898 102.07 130.057 102.06 130.219 102.039C130.38 102.013 130.539 101.977 130.695 101.93C130.852 101.888 131 101.836 131.141 101.773C131.281 101.711 131.409 101.641 131.523 101.562L131.773 102.477C131.643 102.576 131.495 102.661 131.328 102.734C131.161 102.807 130.987 102.867 130.805 102.914C130.622 102.966 130.438 103.003 130.25 103.023C130.063 103.049 129.885 103.062 129.719 103.062C128.953 103.062 128.294 102.93 127.742 102.664C127.195 102.393 126.75 102.016 126.406 101.531C126.057 101.047 125.805 100.471 125.648 99.8047C125.497 99.1328 125.435 98.3984 125.461 97.6016C125.492 96.7682 125.63 95.9766 125.875 95.2266C126.125 94.4766 126.458 93.8281 126.875 93.2812C127.271 92.7604 127.737 92.3516 128.273 92.0547C128.815 91.7578 129.411 91.6094 130.063 91.6094C130.698 91.6094 131.263 91.7344 131.758 91.9844C132.253 92.2292 132.669 92.5807 133.008 93.0391C133.341 93.4974 133.591 94.0495 133.758 94.6953C133.924 95.3359 133.997 96.0495 133.977 96.8359ZM128.594 97.7344C128.583 98 128.589 98.2396 128.609 98.4531C128.63 98.6615 128.669 98.8359 128.727 98.9766C128.784 99.1224 128.857 99.2344 128.945 99.3125C129.039 99.3854 129.148 99.4219 129.273 99.4219C129.43 99.4219 129.578 99.3958 129.719 99.3438C129.865 99.2917 129.997 99.2083 130.117 99.0938C130.19 99.0208 130.26 98.9375 130.328 98.8438C130.396 98.7448 130.458 98.6328 130.516 98.5078L130.523 98.4297L130.82 95.0312C130.747 94.9948 130.672 94.9688 130.594 94.9531C130.521 94.9375 130.445 94.9297 130.367 94.9297C130.091 94.9297 129.849 94.9974 129.641 95.1328C129.438 95.263 129.266 95.4479 129.125 95.6875C128.984 95.9323 128.87 96.2292 128.781 96.5781C128.698 96.9219 128.635 97.3073 128.594 97.7344Z" fill="black"/>
<path d="M74.8828 97.7422H70.1328V101.773H75.6719V103H68.6875V91.625H75.6016V92.8594H70.1328V96.5156H74.8828V97.7422Z" fill="black"/>
<path d="M66.1406 103H64.6719L60.2578 94.5L60.2344 103H58.7734V91.625H60.2422L64.6562 100.109L64.6797 91.625H66.1406V103Z" fill="black"/>
<path d="M56.5469 91.625L56.5625 99.3281C56.5625 99.8594 56.4688 100.357 56.2812 100.82C56.0938 101.284 55.8359 101.688 55.5078 102.031C55.1797 102.38 54.7891 102.656 54.3359 102.859C53.8828 103.057 53.3854 103.156 52.8438 103.156C52.2917 103.156 51.7891 103.057 51.3359 102.859C50.8828 102.661 50.4948 102.388 50.1719 102.039C49.849 101.695 49.5964 101.292 49.4141 100.828C49.2318 100.359 49.138 99.8594 49.1328 99.3281L49.1484 91.625H50.5234L50.5547 99.3281C50.5599 99.6667 50.612 99.9922 50.7109 100.305C50.8151 100.617 50.9635 100.893 51.1562 101.133C51.3438 101.372 51.5781 101.565 51.8594 101.711C52.1458 101.857 52.474 101.93 52.8438 101.93C53.2135 101.93 53.5391 101.859 53.8203 101.719C54.1016 101.573 54.3385 101.378 54.5312 101.133C54.7188 100.893 54.862 100.617 54.9609 100.305C55.0599 99.9922 55.1146 99.6667 55.125 99.3281L55.1484 91.625H56.5469Z" fill="black"/>
<path d="M47.4688 92.8594H43.9531V103H42.5469V92.8594H39.0312V91.625H47.4688V92.8594Z" fill="black"/>
<path d="M20.8047 91H25.125V101.75H27.8828V103H20.8047V101.75H23.6797V92.2578H20.8047V91Z" fill="black"/>
<path d="M11.1953 91H15.5156V101.75H18.2734V103H11.1953V101.75H14.0703V92.2578H11.1953V91Z" fill="black"/>
<path d="M6.78906 100.055H2.99219L2.07812 103H0.632812L4.30469 91.625H5.51562L9.125 103H7.6875L6.78906 100.055ZM3.38281 98.7969H6.40625L4.90625 93.8594L3.38281 98.7969Z" fill="black"/>
<path d="M231.711 68.7031C231.711 68.0729 231.789 67.4948 231.945 66.9688C232.107 66.4375 232.336 65.9818 232.633 65.6016C232.924 65.2214 233.279 64.9245 233.695 64.7109C234.112 64.4974 234.578 64.3906 235.094 64.3906C235.599 64.3906 236.039 64.4766 236.414 64.6484C236.794 64.8151 237.122 65.0599 237.398 65.3828V61H238.844V73H237.516L237.453 72.1094C237.172 72.4531 236.836 72.7135 236.445 72.8906C236.055 73.0677 235.599 73.1562 235.078 73.1562C234.568 73.1562 234.104 73.0469 233.688 72.8281C233.276 72.6094 232.924 72.3073 232.633 71.9219C232.341 71.5365 232.115 71.0833 231.953 70.5625C231.792 70.0365 231.711 69.4714 231.711 68.8672V68.7031ZM233.156 68.8672C233.156 69.2786 233.201 69.6693 233.289 70.0391C233.378 70.4089 233.516 70.7344 233.703 71.0156C233.885 71.2969 234.12 71.5208 234.406 71.6875C234.693 71.849 235.036 71.9297 235.438 71.9297C235.922 71.9297 236.323 71.8203 236.641 71.6016C236.958 71.3828 237.211 71.0885 237.398 70.7188V66.7969C237.211 66.4531 236.958 66.1719 236.641 65.9531C236.323 65.7292 235.927 65.6172 235.453 65.6172C235.047 65.6172 234.698 65.7005 234.406 65.8672C234.12 66.0339 233.885 66.2578 233.703 66.5391C233.516 66.8255 233.378 67.1562 233.289 67.5312C233.201 67.901 233.156 68.2917 233.156 68.7031V68.8672Z" fill="black"/>
<path d="M222.602 61H226.922V71.75H229.68V73H222.602V71.75H225.477V62.2578H222.602V61Z" fill="black"/>
<path d="M218.305 64.3906C218.57 64.3906 218.846 64.4089 219.133 64.4453C219.424 64.4818 219.643 64.5312 219.789 64.5938L219.594 66.0078C219.312 65.9453 219.044 65.901 218.789 65.875C218.539 65.8438 218.276 65.8281 218 65.8281C217.646 65.8281 217.326 65.8724 217.039 65.9609C216.753 66.0443 216.503 66.1693 216.289 66.3359C216.096 66.4818 215.927 66.6615 215.781 66.875C215.641 67.0833 215.523 67.3177 215.43 67.5781V73H213.977V64.5469H215.352L215.414 65.6797L215.422 65.8906C215.766 65.4271 216.177 65.0625 216.656 64.7969C217.141 64.526 217.69 64.3906 218.305 64.3906Z" fill="black"/>
<path d="M202.75 68.6953C202.75 68.0859 202.839 67.5208 203.016 67C203.193 66.474 203.448 66.0182 203.781 65.6328C204.109 65.2474 204.51 64.9453 204.984 64.7266C205.458 64.5026 205.992 64.3906 206.586 64.3906C207.185 64.3906 207.721 64.5026 208.195 64.7266C208.674 64.9453 209.081 65.2474 209.414 65.6328C209.742 66.0182 209.995 66.474 210.172 67C210.349 67.5208 210.438 68.0859 210.438 68.6953V68.8672C210.438 69.4766 210.349 70.0417 210.172 70.5625C209.995 71.0833 209.742 71.5365 209.414 71.9219C209.081 72.3073 208.677 72.6094 208.203 72.8281C207.729 73.0469 207.195 73.1562 206.602 73.1562C206.003 73.1562 205.464 73.0469 204.984 72.8281C204.51 72.6094 204.109 72.3073 203.781 71.9219C203.448 71.5365 203.193 71.0833 203.016 70.5625C202.839 70.0417 202.75 69.4766 202.75 68.8672V68.6953ZM204.195 68.8672C204.195 69.2839 204.245 69.6823 204.344 70.0625C204.443 70.4375 204.594 70.7682 204.797 71.0547C204.995 71.3411 205.245 71.5677 205.547 71.7344C205.849 71.901 206.201 71.9844 206.602 71.9844C206.997 71.9844 207.344 71.901 207.641 71.7344C207.943 71.5677 208.195 71.3411 208.398 71.0547C208.596 70.7682 208.745 70.4375 208.844 70.0625C208.943 69.6823 208.992 69.2839 208.992 68.8672V68.6953C208.992 68.2839 208.94 67.8906 208.836 67.5156C208.737 67.1354 208.589 66.8021 208.391 66.5156C208.188 66.2292 207.935 66.0026 207.633 65.8359C207.336 65.6641 206.987 65.5781 206.586 65.5781C206.185 65.5781 205.836 65.6641 205.539 65.8359C205.242 66.0026 204.995 66.2292 204.797 66.5156C204.594 66.8021 204.443 67.1354 204.344 67.5156C204.245 67.8906 204.195 68.2839 204.195 68.6953V68.8672Z" fill="black"/>
<path d="M194.141 73L192.758 61.625H194.133L194.953 69.4688L195 69.9219L195.086 69.4531L196.461 61.625H197.719L199.102 69.4609L199.188 69.9219L199.234 69.4531L200.055 61.625H201.422L200.039 73H198.562L197.18 64.9062L197.102 64.4297L197.016 64.9141L195.625 73H194.141Z" fill="black"/>
<path d="M178.062 73.1562C177.469 73.1562 176.922 73.0547 176.422 72.8516C175.927 72.6484 175.503 72.3646 175.148 72C174.794 71.6354 174.518 71.2031 174.32 70.7031C174.122 70.2031 174.023 69.6589 174.023 69.0703V68.7422C174.023 68.0599 174.133 67.4505 174.352 66.9141C174.57 66.3724 174.862 65.9141 175.227 65.5391C175.586 65.1693 175.995 64.8854 176.453 64.6875C176.917 64.4896 177.391 64.3906 177.875 64.3906C178.484 64.3906 179.016 64.4974 179.469 64.7109C179.927 64.9193 180.307 65.2083 180.609 65.5781C180.911 65.9531 181.135 66.3932 181.281 66.8984C181.432 67.4036 181.508 67.9505 181.508 68.5391V69.1875H175.469V69.2422C175.505 69.6536 175.586 70.0156 175.711 70.3281C175.841 70.6406 176.018 70.9167 176.242 71.1562C176.471 71.4115 176.747 71.612 177.07 71.7578C177.393 71.9036 177.75 71.9766 178.141 71.9766C178.656 71.9766 179.115 71.8724 179.516 71.6641C179.917 71.4557 180.25 71.1797 180.516 70.8359L181.398 71.5234C181.117 71.9505 180.695 72.3307 180.133 72.6641C179.576 72.9922 178.885 73.1562 178.062 73.1562ZM177.875 65.5781C177.583 65.5781 177.307 65.6328 177.047 65.7422C176.786 65.8464 176.552 66 176.344 66.2031C176.135 66.4115 175.958 66.6667 175.812 66.9688C175.672 67.2656 175.573 67.6094 175.516 68H180.062V67.9297C180.062 67.6693 180.013 67.3906 179.914 67.0938C179.815 66.7917 179.677 66.5312 179.5 66.3125C179.323 66.0938 179.099 65.9167 178.828 65.7812C178.562 65.6458 178.245 65.5781 177.875 65.5781Z" fill="black"/>
<path d="M166.164 65.8047C166.279 65.6328 166.406 65.4766 166.547 65.3359C166.688 65.1901 166.836 65.0625 166.992 64.9531C167.242 64.7708 167.516 64.6328 167.812 64.5391C168.115 64.4453 168.435 64.3958 168.773 64.3906C169.216 64.3906 169.617 64.4557 169.977 64.5859C170.341 64.7109 170.651 64.9089 170.906 65.1797C171.161 65.4505 171.357 65.7943 171.492 66.2109C171.633 66.6224 171.703 67.112 171.703 67.6797V73H170.258V67.6641C170.258 67.3307 170.219 67.0391 170.141 66.7891C170.062 66.5339 169.948 66.3229 169.797 66.1562C169.635 65.974 169.432 65.8385 169.188 65.75C168.943 65.6562 168.661 65.612 168.344 65.6172C168.083 65.6172 167.836 65.6536 167.602 65.7266C167.367 65.7995 167.151 65.9036 166.953 66.0391C166.797 66.1432 166.651 66.2656 166.516 66.4062C166.385 66.5417 166.268 66.6927 166.164 66.8594V73H164.719V61H166.164V65.8047Z" fill="black"/>
<path d="M158.531 62.5V64.5469H161.75V65.6641H158.531V70.2578C158.531 70.5859 158.573 70.8568 158.656 71.0703C158.74 71.2839 158.854 71.4531 159 71.5781C159.146 71.7083 159.312 71.7995 159.5 71.8516C159.693 71.9036 159.896 71.9297 160.109 71.9297C160.266 71.9297 160.427 71.9219 160.594 71.9062C160.76 71.8854 160.924 71.862 161.086 71.8359C161.242 71.8099 161.388 71.7839 161.523 71.7578C161.664 71.7266 161.779 71.7005 161.867 71.6797L162.07 72.7031C161.951 72.776 161.805 72.8411 161.633 72.8984C161.461 72.9505 161.273 72.9948 161.07 73.0312C160.867 73.0729 160.651 73.1042 160.422 73.125C160.198 73.1458 159.974 73.1562 159.75 73.1562C159.375 73.1562 159.023 73.1042 158.695 73C158.372 72.8906 158.091 72.7188 157.852 72.4844C157.612 72.2552 157.422 71.9583 157.281 71.5938C157.146 71.224 157.078 70.7786 157.078 70.2578V65.6641H154.859V64.5469H157.078V62.5H158.531Z" fill="black"/>
<path d="M135.617 68.7031C135.617 68.0729 135.695 67.4948 135.852 66.9688C136.013 66.4375 136.242 65.9818 136.539 65.6016C136.831 65.2214 137.185 64.9245 137.602 64.7109C138.018 64.4974 138.484 64.3906 139 64.3906C139.505 64.3906 139.945 64.4766 140.32 64.6484C140.701 64.8151 141.029 65.0599 141.305 65.3828V61H142.75V73H141.422L141.359 72.1094C141.078 72.4531 140.742 72.7135 140.352 72.8906C139.961 73.0677 139.505 73.1562 138.984 73.1562C138.474 73.1562 138.01 73.0469 137.594 72.8281C137.182 72.6094 136.831 72.3073 136.539 71.9219C136.247 71.5365 136.021 71.0833 135.859 70.5625C135.698 70.0365 135.617 69.4714 135.617 68.8672V68.7031ZM137.062 68.8672C137.062 69.2786 137.107 69.6693 137.195 70.0391C137.284 70.4089 137.422 70.7344 137.609 71.0156C137.792 71.2969 138.026 71.5208 138.312 71.6875C138.599 71.849 138.943 71.9297 139.344 71.9297C139.828 71.9297 140.229 71.8203 140.547 71.6016C140.865 71.3828 141.117 71.0885 141.305 70.7188V66.7969C141.117 66.4531 140.865 66.1719 140.547 65.9531C140.229 65.7292 139.833 65.6172 139.359 65.6172C138.953 65.6172 138.604 65.7005 138.312 65.8672C138.026 66.0339 137.792 66.2578 137.609 66.5391C137.422 66.8255 137.284 67.1562 137.195 67.5312C137.107 67.901 137.062 68.2917 137.062 68.7031V68.8672Z" fill="black"/>
<path d="M126.281 73V64.5469H127.578L127.68 65.7969C127.805 65.6198 127.94 65.4583 128.086 65.3125C128.237 65.1615 128.396 65.0312 128.562 64.9219C128.812 64.7552 129.083 64.6276 129.375 64.5391C129.672 64.4453 129.984 64.3958 130.312 64.3906C130.755 64.3906 131.156 64.4531 131.516 64.5781C131.88 64.7031 132.19 64.8984 132.445 65.1641C132.701 65.4297 132.896 65.7682 133.031 66.1797C133.172 66.5859 133.242 67.0703 133.242 67.6328V73H131.797V67.6641C131.797 67.2891 131.755 66.9714 131.672 66.7109C131.589 66.4505 131.466 66.2396 131.305 66.0781C131.138 65.9167 130.935 65.7995 130.695 65.7266C130.461 65.6536 130.19 65.6172 129.883 65.6172C129.617 65.6172 129.37 65.6562 129.141 65.7344C128.911 65.8073 128.701 65.9089 128.508 66.0391C128.352 66.1536 128.206 66.2865 128.07 66.4375C127.94 66.5885 127.826 66.7552 127.727 66.9375V73H126.281Z" fill="black"/>
<path d="M122.242 73L122.156 71.8359C121.875 72.2526 121.523 72.5781 121.102 72.8125C120.68 73.0417 120.193 73.1562 119.641 73.1562C119.198 73.1562 118.797 73.0885 118.438 72.9531C118.078 72.8125 117.771 72.5964 117.516 72.3047C117.26 72.013 117.062 71.6432 116.922 71.1953C116.786 70.7422 116.719 70.2005 116.719 69.5703V64.5469H118.164V69.5859C118.164 70.0443 118.201 70.4245 118.273 70.7266C118.346 71.0286 118.456 71.2682 118.602 71.4453C118.747 71.6276 118.924 71.7552 119.133 71.8281C119.346 71.901 119.591 71.9375 119.867 71.9375C120.19 71.9375 120.479 71.901 120.734 71.8281C120.99 71.75 121.211 71.6432 121.398 71.5078C121.555 71.3984 121.69 71.2682 121.805 71.1172C121.924 70.9609 122.023 70.7917 122.102 70.6094V64.5469H123.555V73H122.242Z" fill="black"/>
<path d="M106.656 68.6953C106.656 68.0859 106.745 67.5208 106.922 67C107.099 66.474 107.354 66.0182 107.688 65.6328C108.016 65.2474 108.417 64.9453 108.891 64.7266C109.365 64.5026 109.898 64.3906 110.492 64.3906C111.091 64.3906 111.628 64.5026 112.102 64.7266C112.581 64.9453 112.987 65.2474 113.32 65.6328C113.648 66.0182 113.901 66.474 114.078 67C114.255 67.5208 114.344 68.0859 114.344 68.6953V68.8672C114.344 69.4766 114.255 70.0417 114.078 70.5625C113.901 71.0833 113.648 71.5365 113.32 71.9219C112.987 72.3073 112.583 72.6094 112.109 72.8281C111.635 73.0469 111.102 73.1562 110.508 73.1562C109.909 73.1562 109.37 73.0469 108.891 72.8281C108.417 72.6094 108.016 72.3073 107.688 71.9219C107.354 71.5365 107.099 71.0833 106.922 70.5625C106.745 70.0417 106.656 69.4766 106.656 68.8672V68.6953ZM108.102 68.8672C108.102 69.2839 108.151 69.6823 108.25 70.0625C108.349 70.4375 108.5 70.7682 108.703 71.0547C108.901 71.3411 109.151 71.5677 109.453 71.7344C109.755 71.901 110.107 71.9844 110.508 71.9844C110.904 71.9844 111.25 71.901 111.547 71.7344C111.849 71.5677 112.102 71.3411 112.305 71.0547C112.503 70.7682 112.651 70.4375 112.75 70.0625C112.849 69.6823 112.898 69.2839 112.898 68.8672V68.6953C112.898 68.2839 112.846 67.8906 112.742 67.5156C112.643 67.1354 112.495 66.8021 112.297 66.5156C112.094 66.2292 111.841 66.0026 111.539 65.8359C111.242 65.6641 110.893 65.5781 110.492 65.5781C110.091 65.5781 109.742 65.6641 109.445 65.8359C109.148 66.0026 108.901 66.2292 108.703 66.5156C108.5 66.8021 108.349 67.1354 108.25 67.5156C108.151 67.8906 108.102 68.2839 108.102 68.6953V68.8672Z" fill="black"/>
<path d="M102.992 64.3906C103.258 64.3906 103.534 64.4089 103.82 64.4453C104.112 64.4818 104.331 64.5312 104.477 64.5938L104.281 66.0078C104 65.9453 103.732 65.901 103.477 65.875C103.227 65.8438 102.964 65.8281 102.688 65.8281C102.333 65.8281 102.013 65.8724 101.727 65.9609C101.44 66.0443 101.19 66.1693 100.977 66.3359C100.784 66.4818 100.615 66.6615 100.469 66.875C100.328 67.0833 100.211 67.3177 100.117 67.5781V73H98.6641V64.5469H100.039L100.102 65.6797L100.109 65.8906C100.453 65.4271 100.865 65.0625 101.344 64.7969C101.828 64.526 102.378 64.3906 102.992 64.3906Z" fill="black"/>
<path d="M93.3984 73C93.3411 72.8906 93.2943 72.7552 93.2578 72.5938C93.2266 72.4271 93.2031 72.2552 93.1875 72.0781C93.0417 72.224 92.8776 72.362 92.6953 72.4922C92.5182 72.6224 92.3229 72.737 92.1094 72.8359C91.8906 72.9349 91.6589 73.013 91.4141 73.0703C91.1693 73.1276 90.9089 73.1562 90.6328 73.1562C90.1849 73.1562 89.7786 73.0911 89.4141 72.9609C89.0547 72.8307 88.75 72.6536 88.5 72.4297C88.2448 72.2109 88.0469 71.9505 87.9062 71.6484C87.7708 71.3411 87.7031 71.0104 87.7031 70.6562C87.7031 70.1927 87.7943 69.7865 87.9766 69.4375C88.1641 69.0885 88.4271 68.7969 88.7656 68.5625C89.1042 68.3333 89.5104 68.1615 89.9844 68.0469C90.4635 67.9323 90.9974 67.875 91.5859 67.875H93.1641V67.2109C93.1641 66.9557 93.1172 66.7266 93.0234 66.5234C92.9297 66.3203 92.7969 66.1458 92.625 66C92.4531 65.8594 92.2422 65.75 91.9922 65.6719C91.7474 65.5938 91.4714 65.5547 91.1641 65.5547C90.8776 65.5547 90.6198 65.5911 90.3906 65.6641C90.1667 65.737 89.9766 65.8333 89.8203 65.9531C89.6641 66.0729 89.5417 66.2161 89.4531 66.3828C89.3698 66.5443 89.3281 66.7135 89.3281 66.8906H87.875C87.8802 66.5833 87.9583 66.2812 88.1094 65.9844C88.2656 65.6875 88.4896 65.4193 88.7812 65.1797C89.0677 64.9453 89.4167 64.7552 89.8281 64.6094C90.2448 64.4635 90.7161 64.3906 91.2422 64.3906C91.7214 64.3906 92.1667 64.4505 92.5781 64.5703C92.9896 64.6849 93.3464 64.8594 93.6484 65.0938C93.9453 65.3333 94.1797 65.6302 94.3516 65.9844C94.5234 66.3385 94.6094 66.7526 94.6094 67.2266V71.1562C94.6094 71.4375 94.6354 71.737 94.6875 72.0547C94.7396 72.3672 94.8125 72.6406 94.9062 72.875V73H93.3984ZM90.8438 71.8984C91.125 71.8984 91.388 71.862 91.6328 71.7891C91.8776 71.7161 92.1016 71.6198 92.3047 71.5C92.5026 71.3802 92.6745 71.2448 92.8203 71.0938C92.9661 70.9375 93.0807 70.776 93.1641 70.6094V68.8984H91.8203C91.3203 68.8984 90.8828 68.9427 90.5078 69.0312C90.138 69.1146 89.8438 69.2448 89.625 69.4219C89.4688 69.5469 89.349 69.6953 89.2656 69.8672C89.1875 70.0391 89.1484 70.2344 89.1484 70.4531C89.1484 70.6615 89.1823 70.8542 89.25 71.0312C89.3229 71.2083 89.4297 71.3594 89.5703 71.4844C89.7109 71.6146 89.888 71.7161 90.1016 71.7891C90.3151 71.862 90.5625 71.8984 90.8438 71.8984Z" fill="black"/>
<path d="M36.4453 67.7422H31.6953V71.7734H37.2344V73H30.25V61.625H37.1641V62.8594H31.6953V66.5156H36.4453V67.7422Z" fill="black"/>
<path d="M27.7031 73H26.2344L21.8203 64.5L21.7969 73H20.3359V61.625H21.8047L26.2188 70.1094L26.2422 61.625H27.7031V73Z" fill="black"/>
<path d="M18.1094 61.625L18.125 69.3281C18.125 69.8594 18.0312 70.3568 17.8438 70.8203C17.6562 71.2839 17.3984 71.6875 17.0703 72.0312C16.7422 72.3802 16.3516 72.6562 15.8984 72.8594C15.4453 73.0573 14.9479 73.1562 14.4062 73.1562C13.8542 73.1562 13.3516 73.0573 12.8984 72.8594C12.4453 72.6615 12.0573 72.388 11.7344 72.0391C11.4115 71.6953 11.1589 71.2917 10.9766 70.8281C10.7943 70.3594 10.7005 69.8594 10.6953 69.3281L10.7109 61.625H12.0859L12.1172 69.3281C12.1224 69.6667 12.1745 69.9922 12.2734 70.3047C12.3776 70.6172 12.526 70.8932 12.7188 71.1328C12.9062 71.3724 13.1406 71.5651 13.4219 71.7109C13.7083 71.8568 14.0365 71.9297 14.4062 71.9297C14.776 71.9297 15.1016 71.8594 15.3828 71.7188C15.6641 71.5729 15.901 71.3776 16.0938 71.1328C16.2812 70.8932 16.4245 70.6172 16.5234 70.3047C16.6224 69.9922 16.6771 69.6667 16.6875 69.3281L16.7109 61.625H18.1094Z" fill="black"/>
<path d="M9.03125 62.8594H5.51562V73H4.10938V62.8594H0.59375V61.625H9.03125V62.8594Z" fill="black"/>
<path d="M235.406 32.5V34.5469H238.625V35.6641H235.406V40.2578C235.406 40.5859 235.448 40.8568 235.531 41.0703C235.615 41.2839 235.729 41.4531 235.875 41.5781C236.021 41.7083 236.188 41.7995 236.375 41.8516C236.568 41.9036 236.771 41.9297 236.984 41.9297C237.141 41.9297 237.302 41.9219 237.469 41.9062C237.635 41.8854 237.799 41.862 237.961 41.8359C238.117 41.8099 238.263 41.7839 238.398 41.7578C238.539 41.7266 238.654 41.7005 238.742 41.6797L238.945 42.7031C238.826 42.776 238.68 42.8411 238.508 42.8984C238.336 42.9505 238.148 42.9948 237.945 43.0312C237.742 43.0729 237.526 43.1042 237.297 43.125C237.073 43.1458 236.849 43.1562 236.625 43.1562C236.25 43.1562 235.898 43.1042 235.57 43C235.247 42.8906 234.966 42.7188 234.727 42.4844C234.487 42.2552 234.297 41.9583 234.156 41.5938C234.021 41.224 233.953 40.7786 233.953 40.2578V35.6641H231.734V34.5469H233.953V32.5H235.406Z" fill="black"/>
<path d="M227.93 43C227.872 42.8906 227.826 42.7552 227.789 42.5938C227.758 42.4271 227.734 42.2552 227.719 42.0781C227.573 42.224 227.409 42.362 227.227 42.4922C227.049 42.6224 226.854 42.737 226.641 42.8359C226.422 42.9349 226.19 43.013 225.945 43.0703C225.701 43.1276 225.44 43.1562 225.164 43.1562C224.716 43.1562 224.31 43.0911 223.945 42.9609C223.586 42.8307 223.281 42.6536 223.031 42.4297C222.776 42.2109 222.578 41.9505 222.438 41.6484C222.302 41.3411 222.234 41.0104 222.234 40.6562C222.234 40.1927 222.326 39.7865 222.508 39.4375C222.695 39.0885 222.958 38.7969 223.297 38.5625C223.635 38.3333 224.042 38.1615 224.516 38.0469C224.995 37.9323 225.529 37.875 226.117 37.875H227.695V37.2109C227.695 36.9557 227.648 36.7266 227.555 36.5234C227.461 36.3203 227.328 36.1458 227.156 36C226.984 35.8594 226.773 35.75 226.523 35.6719C226.279 35.5938 226.003 35.5547 225.695 35.5547C225.409 35.5547 225.151 35.5911 224.922 35.6641C224.698 35.737 224.508 35.8333 224.352 35.9531C224.195 36.0729 224.073 36.2161 223.984 36.3828C223.901 36.5443 223.859 36.7135 223.859 36.8906H222.406C222.411 36.5833 222.49 36.2812 222.641 35.9844C222.797 35.6875 223.021 35.4193 223.312 35.1797C223.599 34.9453 223.948 34.7552 224.359 34.6094C224.776 34.4635 225.247 34.3906 225.773 34.3906C226.253 34.3906 226.698 34.4505 227.109 34.5703C227.521 34.6849 227.878 34.8594 228.18 35.0938C228.477 35.3333 228.711 35.6302 228.883 35.9844C229.055 36.3385 229.141 36.7526 229.141 37.2266V41.1562C229.141 41.4375 229.167 41.737 229.219 42.0547C229.271 42.3672 229.344 42.6406 229.438 42.875V43H227.93ZM225.375 41.8984C225.656 41.8984 225.919 41.862 226.164 41.7891C226.409 41.7161 226.633 41.6198 226.836 41.5C227.034 41.3802 227.206 41.2448 227.352 41.0938C227.497 40.9375 227.612 40.776 227.695 40.6094V38.8984H226.352C225.852 38.8984 225.414 38.9427 225.039 39.0312C224.669 39.1146 224.375 39.2448 224.156 39.4219C224 39.5469 223.88 39.6953 223.797 39.8672C223.719 40.0391 223.68 40.2344 223.68 40.4531C223.68 40.6615 223.714 40.8542 223.781 41.0312C223.854 41.2083 223.961 41.3594 224.102 41.4844C224.242 41.6146 224.419 41.7161 224.633 41.7891C224.846 41.862 225.094 41.8984 225.375 41.8984Z" fill="black"/>
<path d="M216.5 43.1562C215.906 43.1562 215.359 43.0547 214.859 42.8516C214.365 42.6484 213.94 42.3646 213.586 42C213.232 41.6354 212.956 41.2031 212.758 40.7031C212.56 40.2031 212.461 39.6589 212.461 39.0703V38.7422C212.461 38.0599 212.57 37.4505 212.789 36.9141C213.008 36.3724 213.299 35.9141 213.664 35.5391C214.023 35.1693 214.432 34.8854 214.891 34.6875C215.354 34.4896 215.828 34.3906 216.312 34.3906C216.922 34.3906 217.453 34.4974 217.906 34.7109C218.365 34.9193 218.745 35.2083 219.047 35.5781C219.349 35.9531 219.573 36.3932 219.719 36.8984C219.87 37.4036 219.945 37.9505 219.945 38.5391V39.1875H213.906V39.2422C213.943 39.6536 214.023 40.0156 214.148 40.3281C214.279 40.6406 214.456 40.9167 214.68 41.1562C214.909 41.4115 215.185 41.612 215.508 41.7578C215.831 41.9036 216.188 41.9766 216.578 41.9766C217.094 41.9766 217.552 41.8724 217.953 41.6641C218.354 41.4557 218.688 41.1797 218.953 40.8359L219.836 41.5234C219.555 41.9505 219.133 42.3307 218.57 42.6641C218.013 42.9922 217.323 43.1562 216.5 43.1562ZM216.312 35.5781C216.021 35.5781 215.745 35.6328 215.484 35.7422C215.224 35.8464 214.99 36 214.781 36.2031C214.573 36.4115 214.396 36.6667 214.25 36.9688C214.109 37.2656 214.01 37.6094 213.953 38H218.5V37.9297C218.5 37.6693 218.451 37.3906 218.352 37.0938C218.253 36.7917 218.115 36.5312 217.938 36.3125C217.76 36.0938 217.536 35.9167 217.266 35.7812C217 35.6458 216.682 35.5781 216.312 35.5781Z" fill="black"/>
<path d="M203.141 43V31.625H206.523C206.992 31.6302 207.451 31.6927 207.898 31.8125C208.346 31.9271 208.745 32.1068 209.094 32.3516C209.443 32.5964 209.721 32.9089 209.93 33.2891C210.138 33.6693 210.24 34.125 210.234 34.6562C210.229 34.9531 210.18 35.224 210.086 35.4688C209.997 35.7135 209.875 35.9323 209.719 36.125C209.557 36.3229 209.378 36.4896 209.18 36.625C208.987 36.7604 208.753 36.888 208.477 37.0078V37.0312C208.763 37.099 209.039 37.2214 209.305 37.3984C209.57 37.5755 209.789 37.7708 209.961 37.9844C210.143 38.2188 210.284 38.4818 210.383 38.7734C210.487 39.0651 210.539 39.3802 210.539 39.7188C210.544 40.25 210.443 40.7188 210.234 41.125C210.026 41.5312 209.747 41.8698 209.398 42.1406C209.049 42.4167 208.646 42.6276 208.188 42.7734C207.734 42.9193 207.266 42.9948 206.781 43H203.141ZM204.594 37.6797V41.7734H206.82C207.122 41.7682 207.409 41.7188 207.68 41.625C207.951 41.526 208.19 41.3906 208.398 41.2188C208.607 41.0469 208.771 40.8359 208.891 40.5859C209.016 40.3359 209.078 40.0521 209.078 39.7344C209.083 39.4115 209.029 39.125 208.914 38.875C208.805 38.625 208.651 38.4115 208.453 38.2344C208.255 38.0625 208.023 37.9297 207.758 37.8359C207.492 37.7422 207.206 37.6901 206.898 37.6797H204.594ZM204.594 36.4766H206.609C206.88 36.4714 207.146 36.4297 207.406 36.3516C207.667 36.2682 207.898 36.1484 208.102 35.9922C208.305 35.8411 208.469 35.6536 208.594 35.4297C208.719 35.2057 208.781 34.9453 208.781 34.6484C208.781 34.3307 208.719 34.0599 208.594 33.8359C208.474 33.612 208.312 33.4271 208.109 33.2812C207.901 33.1406 207.661 33.0365 207.391 32.9688C207.125 32.901 206.852 32.8646 206.57 32.8594H204.594V36.4766Z" fill="black"/>
<path d="M184.617 46.4141C184.482 46.4141 184.323 46.3984 184.141 46.3672C183.958 46.3359 183.82 46.3099 183.727 46.2891L183.961 45.1094C184.091 45.1198 184.219 45.1276 184.344 45.1328C184.474 45.1432 184.576 45.1484 184.648 45.1484C184.846 45.1484 185.026 45.0938 185.188 44.9844C185.354 44.875 185.503 44.7448 185.633 44.5938C185.758 44.4427 185.865 44.2865 185.953 44.125C186.047 43.9635 186.12 43.8307 186.172 43.7266L186.75 42.6016L183.109 34.5469H184.727L187.047 40L187.422 41.0234L187.82 40.0312L190 34.5469H191.617L187.328 44.3047C187.229 44.5234 187.102 44.7552 186.945 45C186.794 45.2448 186.609 45.4714 186.391 45.6797C186.172 45.888 185.917 46.0625 185.625 46.2031C185.333 46.3438 184.997 46.4141 184.617 46.4141Z" fill="black"/>
<path d="M179.867 34.3906C180.133 34.3906 180.409 34.4089 180.695 34.4453C180.987 34.4818 181.206 34.5312 181.352 34.5938L181.156 36.0078C180.875 35.9453 180.607 35.901 180.352 35.875C180.102 35.8438 179.839 35.8281 179.562 35.8281C179.208 35.8281 178.888 35.8724 178.602 35.9609C178.315 36.0443 178.065 36.1693 177.852 36.3359C177.659 36.4818 177.49 36.6615 177.344 36.875C177.203 37.0833 177.086 37.3177 176.992 37.5781V43H175.539V34.5469H176.914L176.977 35.6797L176.984 35.8906C177.328 35.4271 177.74 35.0625 178.219 34.7969C178.703 34.526 179.253 34.3906 179.867 34.3906Z" fill="black"/>
<path d="M168.453 43.1562C167.859 43.1562 167.312 43.0547 166.812 42.8516C166.318 42.6484 165.893 42.3646 165.539 42C165.185 41.6354 164.909 41.2031 164.711 40.7031C164.513 40.2031 164.414 39.6589 164.414 39.0703V38.7422C164.414 38.0599 164.523 37.4505 164.742 36.9141C164.961 36.3724 165.253 35.9141 165.617 35.5391C165.977 35.1693 166.385 34.8854 166.844 34.6875C167.307 34.4896 167.781 34.3906 168.266 34.3906C168.875 34.3906 169.406 34.4974 169.859 34.7109C170.318 34.9193 170.698 35.2083 171 35.5781C171.302 35.9531 171.526 36.3932 171.672 36.8984C171.823 37.4036 171.898 37.9505 171.898 38.5391V39.1875H165.859V39.2422C165.896 39.6536 165.977 40.0156 166.102 40.3281C166.232 40.6406 166.409 40.9167 166.633 41.1562C166.862 41.4115 167.138 41.612 167.461 41.7578C167.784 41.9036 168.141 41.9766 168.531 41.9766C169.047 41.9766 169.505 41.8724 169.906 41.6641C170.307 41.4557 170.641 41.1797 170.906 40.8359L171.789 41.5234C171.508 41.9505 171.086 42.3307 170.523 42.6641C169.966 42.9922 169.276 43.1562 168.453 43.1562ZM168.266 35.5781C167.974 35.5781 167.698 35.6328 167.438 35.7422C167.177 35.8464 166.943 36 166.734 36.2031C166.526 36.4115 166.349 36.6667 166.203 36.9688C166.062 37.2656 165.964 37.6094 165.906 38H170.453V37.9297C170.453 37.6693 170.404 37.3906 170.305 37.0938C170.206 36.7917 170.068 36.5312 169.891 36.3125C169.714 36.0938 169.49 35.9167 169.219 35.7812C168.953 35.6458 168.635 35.5781 168.266 35.5781Z" fill="black"/>
<path d="M157.992 43L154.516 34.5469H156L158.422 40.9219L158.555 41.4453L158.695 40.9219L161.062 34.5469H162.539L159.094 43H157.992Z" fill="black"/>
<path d="M151.758 37.7422H147.008V41.7734H152.547V43H145.562V31.625H152.477V32.8594H147.008V36.5156H151.758V37.7422Z" fill="black"/>
<path d="M126.281 43V34.5469H127.578L127.68 35.7969C127.805 35.6198 127.94 35.4583 128.086 35.3125C128.237 35.1615 128.396 35.0312 128.562 34.9219C128.812 34.7552 129.083 34.6276 129.375 34.5391C129.672 34.4453 129.984 34.3958 130.312 34.3906C130.755 34.3906 131.156 34.4531 131.516 34.5781C131.88 34.7031 132.19 34.8984 132.445 35.1641C132.701 35.4297 132.896 35.7682 133.031 36.1797C133.172 36.5859 133.242 37.0703 133.242 37.6328V43H131.797V37.6641C131.797 37.2891 131.755 36.9714 131.672 36.7109C131.589 36.4505 131.466 36.2396 131.305 36.0781C131.138 35.9167 130.935 35.7995 130.695 35.7266C130.461 35.6536 130.19 35.6172 129.883 35.6172C129.617 35.6172 129.37 35.6562 129.141 35.7344C128.911 35.8073 128.701 35.9089 128.508 36.0391C128.352 36.1536 128.206 36.2865 128.07 36.4375C127.94 36.5885 127.826 36.7552 127.727 36.9375V43H126.281Z" fill="black"/>
<path d="M116.898 34.5469H121.219V41.75H123.977V43H116.898V41.75H119.773V35.8047H116.898V34.5469ZM119.586 32.3281C119.586 32.2031 119.604 32.0859 119.641 31.9766C119.682 31.8672 119.745 31.7734 119.828 31.6953C119.896 31.6276 119.982 31.5755 120.086 31.5391C120.195 31.4974 120.318 31.4766 120.453 31.4766C120.589 31.4766 120.708 31.4974 120.812 31.5391C120.917 31.5755 121.003 31.6276 121.07 31.6953C121.154 31.7682 121.216 31.8594 121.258 31.9688C121.299 32.0781 121.32 32.1979 121.32 32.3281C121.32 32.5625 121.247 32.7578 121.102 32.9141C120.956 33.0703 120.74 33.1484 120.453 33.1484C120.161 33.1484 119.943 33.0703 119.797 32.9141C119.656 32.7578 119.586 32.5625 119.586 32.3281Z" fill="black"/>
<path d="M36.4453 37.7422H31.6953V41.7734H37.2344V43H30.25V31.625H37.1641V32.8594H31.6953V36.5156H36.4453V37.7422Z" fill="black"/>
<path d="M27.7031 43H26.2344L21.8203 34.5L21.7969 43H20.3359V31.625H21.8047L26.2188 40.1094L26.2422 31.625H27.7031V43Z" fill="black"/>
<path d="M18.1094 31.625L18.125 39.3281C18.125 39.8594 18.0312 40.3568 17.8438 40.8203C17.6562 41.2839 17.3984 41.6875 17.0703 42.0312C16.7422 42.3802 16.3516 42.6562 15.8984 42.8594C15.4453 43.0573 14.9479 43.1562 14.4062 43.1562C13.8542 43.1562 13.3516 43.0573 12.8984 42.8594C12.4453 42.6615 12.0573 42.388 11.7344 42.0391C11.4115 41.6953 11.1589 41.2917 10.9766 40.8281C10.7943 40.3594 10.7005 39.8594 10.6953 39.3281L10.7109 31.625H12.0859L12.1172 39.3281C12.1224 39.6667 12.1745 39.9922 12.2734 40.3047C12.3776 40.6172 12.526 40.8932 12.7188 41.1328C12.9062 41.3724 13.1406 41.5651 13.4219 41.7109C13.7083 41.8568 14.0365 41.9297 14.4062 41.9297C14.776 41.9297 15.1016 41.8594 15.3828 41.7188C15.6641 41.5729 15.901 41.3776 16.0938 41.1328C16.2812 40.8932 16.4245 40.6172 16.5234 40.3047C16.6224 39.9922 16.6771 39.6667 16.6875 39.3281L16.7109 31.625H18.1094Z" fill="black"/>
<path d="M9.03125 32.8594H5.51562V43H4.10938V32.8594H0.59375V31.625H9.03125V32.8594Z" fill="black"/>
<path d="M232.648 4.54688L232.688 5.34375C232.859 5.04688 233.083 4.8151 233.359 4.64844C233.641 4.48177 233.979 4.39583 234.375 4.39062C234.599 4.39062 234.799 4.41667 234.977 4.46875C235.159 4.51562 235.318 4.58594 235.453 4.67969C235.552 4.7526 235.641 4.84115 235.719 4.94531C235.802 5.04948 235.872 5.16667 235.93 5.29688C236.003 5.17708 236.089 5.0651 236.188 4.96094C236.286 4.85677 236.393 4.76562 236.508 4.6875C236.654 4.59896 236.815 4.52865 236.992 4.47656C237.174 4.42448 237.372 4.39583 237.586 4.39062C237.878 4.39062 238.141 4.4349 238.375 4.52344C238.609 4.60677 238.807 4.73177 238.969 4.89844C239.146 5.08594 239.281 5.33073 239.375 5.63281C239.469 5.92969 239.516 6.28125 239.516 6.6875V13H238.141V6.67188C238.141 6.49479 238.12 6.33854 238.078 6.20312C238.036 6.06771 237.977 5.95573 237.898 5.86719C237.815 5.78385 237.711 5.72135 237.586 5.67969C237.466 5.63802 237.326 5.61719 237.164 5.61719C236.992 5.61719 236.844 5.64062 236.719 5.6875C236.594 5.73438 236.49 5.79688 236.406 5.875C236.323 5.95833 236.258 6.05469 236.211 6.16406C236.164 6.26823 236.133 6.38542 236.117 6.51562C236.117 6.54167 236.117 6.56771 236.117 6.59375C236.117 6.61458 236.117 6.64062 236.117 6.67188V13H234.742V6.66406C234.742 6.48698 234.721 6.33073 234.68 6.19531C234.643 6.0599 234.583 5.94792 234.5 5.85938C234.422 5.77604 234.323 5.71615 234.203 5.67969C234.089 5.63802 233.953 5.61719 233.797 5.61719C233.625 5.61719 233.474 5.63802 233.344 5.67969C233.219 5.71615 233.112 5.77083 233.023 5.84375C232.956 5.90104 232.896 5.96615 232.844 6.03906C232.797 6.11198 232.758 6.1901 232.727 6.27344V13H231.352V4.54688H232.648Z" fill="black"/>
<path d="M223.82 5.80469C223.935 5.63281 224.062 5.47656 224.203 5.33594C224.344 5.1901 224.492 5.0625 224.648 4.95312C224.898 4.77083 225.172 4.63281 225.469 4.53906C225.771 4.44531 226.091 4.39583 226.43 4.39062C226.872 4.39062 227.273 4.45573 227.633 4.58594C227.997 4.71094 228.307 4.90885 228.562 5.17969C228.818 5.45052 229.013 5.79427 229.148 6.21094C229.289 6.6224 229.359 7.11198 229.359 7.67969V13H227.914V7.66406C227.914 7.33073 227.875 7.03906 227.797 6.78906C227.719 6.53385 227.604 6.32292 227.453 6.15625C227.292 5.97396 227.089 5.83854 226.844 5.75C226.599 5.65625 226.318 5.61198 226 5.61719C225.74 5.61719 225.492 5.65365 225.258 5.72656C225.023 5.79948 224.807 5.90365 224.609 6.03906C224.453 6.14323 224.307 6.26562 224.172 6.40625C224.042 6.54167 223.924 6.69271 223.82 6.85938V13H222.375V1H223.82V5.80469Z" fill="black"/>
<path d="M216.188 2.5V4.54688H219.406V5.66406H216.188V10.2578C216.188 10.5859 216.229 10.8568 216.312 11.0703C216.396 11.2839 216.51 11.4531 216.656 11.5781C216.802 11.7083 216.969 11.7995 217.156 11.8516C217.349 11.9036 217.552 11.9297 217.766 11.9297C217.922 11.9297 218.083 11.9219 218.25 11.9062C218.417 11.8854 218.581 11.862 218.742 11.8359C218.898 11.8099 219.044 11.7839 219.18 11.7578C219.32 11.7266 219.435 11.7005 219.523 11.6797L219.727 12.7031C219.607 12.776 219.461 12.8411 219.289 12.8984C219.117 12.9505 218.93 12.9948 218.727 13.0312C218.523 13.0729 218.307 13.1042 218.078 13.125C217.854 13.1458 217.63 13.1562 217.406 13.1562C217.031 13.1562 216.68 13.1042 216.352 13C216.029 12.8906 215.747 12.7188 215.508 12.4844C215.268 12.2552 215.078 11.9583 214.938 11.5938C214.802 11.224 214.734 10.7786 214.734 10.2578V5.66406H212.516V4.54688H214.734V2.5H216.188Z" fill="black"/>
<path d="M203.836 16.4141C203.701 16.4141 203.542 16.3984 203.359 16.3672C203.177 16.3359 203.039 16.3099 202.945 16.2891L203.18 15.1094C203.31 15.1198 203.438 15.1276 203.562 15.1328C203.693 15.1432 203.794 15.1484 203.867 15.1484C204.065 15.1484 204.245 15.0938 204.406 14.9844C204.573 14.875 204.721 14.7448 204.852 14.5938C204.977 14.4427 205.083 14.2865 205.172 14.125C205.266 13.9635 205.339 13.8307 205.391 13.7266L205.969 12.6016L202.328 4.54688H203.945L206.266 10L206.641 11.0234L207.039 10.0312L209.219 4.54688H210.836L206.547 14.3047C206.448 14.5234 206.32 14.7552 206.164 15C206.013 15.2448 205.828 15.4714 205.609 15.6797C205.391 15.888 205.135 16.0625 204.844 16.2031C204.552 16.3438 204.216 16.4141 203.836 16.4141Z" fill="black"/>
<path d="M194.992 5.80469C195.107 5.63281 195.234 5.47656 195.375 5.33594C195.516 5.1901 195.664 5.0625 195.82 4.95312C196.07 4.77083 196.344 4.63281 196.641 4.53906C196.943 4.44531 197.263 4.39583 197.602 4.39062C198.044 4.39062 198.445 4.45573 198.805 4.58594C199.169 4.71094 199.479 4.90885 199.734 5.17969C199.99 5.45052 200.185 5.79427 200.32 6.21094C200.461 6.6224 200.531 7.11198 200.531 7.67969V13H199.086V7.66406C199.086 7.33073 199.047 7.03906 198.969 6.78906C198.891 6.53385 198.776 6.32292 198.625 6.15625C198.464 5.97396 198.26 5.83854 198.016 5.75C197.771 5.65625 197.49 5.61198 197.172 5.61719C196.911 5.61719 196.664 5.65365 196.43 5.72656C196.195 5.79948 195.979 5.90365 195.781 6.03906C195.625 6.14323 195.479 6.26562 195.344 6.40625C195.214 6.54167 195.096 6.69271 194.992 6.85938V13H193.547V1H194.992V5.80469Z" fill="black"/>
<path d="M187.703 8.35938H185.43V13H183.992V1.625H187.328C187.859 1.63542 188.359 1.71094 188.828 1.85156C189.297 1.99219 189.708 2.20312 190.062 2.48438C190.411 2.76562 190.685 3.11979 190.883 3.54688C191.086 3.96875 191.188 4.46615 191.188 5.03906C191.188 5.40885 191.133 5.7474 191.023 6.05469C190.919 6.36198 190.773 6.64062 190.586 6.89062C190.398 7.14062 190.174 7.36198 189.914 7.55469C189.654 7.7474 189.367 7.91146 189.055 8.04688L191.469 12.9062L191.461 13H189.938L187.703 8.35938ZM185.43 7.17188H187.367C187.69 7.16667 187.995 7.11719 188.281 7.02344C188.568 6.92448 188.82 6.78385 189.039 6.60156C189.253 6.41927 189.422 6.19792 189.547 5.9375C189.672 5.67188 189.734 5.36719 189.734 5.02344C189.734 4.65885 189.674 4.34115 189.555 4.07031C189.435 3.79427 189.268 3.5625 189.055 3.375C188.841 3.19271 188.586 3.05469 188.289 2.96094C187.997 2.86719 187.677 2.81771 187.328 2.8125H185.43V7.17188Z" fill="black"/>
<path d="M170.336 10.7578C170.336 10.5859 170.302 10.4323 170.234 10.2969C170.167 10.1562 170.052 10.0286 169.891 9.91406C169.729 9.79948 169.516 9.69531 169.25 9.60156C168.984 9.5026 168.654 9.41406 168.258 9.33594C167.773 9.23698 167.331 9.11719 166.93 8.97656C166.534 8.83594 166.195 8.66667 165.914 8.46875C165.628 8.27604 165.406 8.04948 165.25 7.78906C165.094 7.52344 165.016 7.21615 165.016 6.86719C165.016 6.52344 165.096 6.20312 165.258 5.90625C165.419 5.60417 165.646 5.34115 165.938 5.11719C166.229 4.89323 166.576 4.71615 166.977 4.58594C167.383 4.45573 167.828 4.39062 168.312 4.39062C168.833 4.39062 169.302 4.45833 169.719 4.59375C170.135 4.72917 170.49 4.91667 170.781 5.15625C171.073 5.39583 171.297 5.67708 171.453 6C171.615 6.31771 171.695 6.66146 171.695 7.03125H170.25C170.25 6.84896 170.203 6.67188 170.109 6.5C170.016 6.32292 169.885 6.16667 169.719 6.03125C169.552 5.89583 169.349 5.78646 169.109 5.70312C168.875 5.61979 168.609 5.57812 168.312 5.57812C168.005 5.57812 167.734 5.61198 167.5 5.67969C167.271 5.7474 167.081 5.83854 166.93 5.95312C166.773 6.06771 166.656 6.20052 166.578 6.35156C166.5 6.5026 166.461 6.65885 166.461 6.82031C166.461 6.98698 166.492 7.13542 166.555 7.26562C166.617 7.39583 166.727 7.51302 166.883 7.61719C167.034 7.72135 167.237 7.8151 167.492 7.89844C167.753 7.98177 168.081 8.0625 168.477 8.14062C168.997 8.25 169.464 8.3776 169.875 8.52344C170.286 8.66406 170.633 8.83333 170.914 9.03125C171.195 9.23438 171.409 9.46875 171.555 9.73438C171.706 10 171.781 10.3073 171.781 10.6562C171.781 11.0312 171.695 11.3724 171.523 11.6797C171.357 11.987 171.122 12.25 170.82 12.4688C170.518 12.6875 170.156 12.8568 169.734 12.9766C169.312 13.0964 168.852 13.1562 168.352 13.1562C167.779 13.1562 167.268 13.0807 166.82 12.9297C166.372 12.7734 165.995 12.5677 165.688 12.3125C165.375 12.0625 165.135 11.7708 164.969 11.4375C164.807 11.1042 164.727 10.7578 164.727 10.3984H166.172C166.193 10.6953 166.271 10.9453 166.406 11.1484C166.547 11.3516 166.721 11.5156 166.93 11.6406C167.133 11.7656 167.359 11.8542 167.609 11.9062C167.859 11.9583 168.107 11.9844 168.352 11.9844C168.737 11.9844 169.073 11.9401 169.359 11.8516C169.646 11.7578 169.87 11.6302 170.031 11.4688C170.13 11.3698 170.206 11.2604 170.258 11.1406C170.31 11.0208 170.336 10.8932 170.336 10.7578Z" fill="black"/>
<path d="M159.5 1.97656C159.5 2.22135 159.469 2.47917 159.406 2.75C159.349 3.02083 159.263 3.28646 159.148 3.54688C159.029 3.8125 158.885 4.0651 158.719 4.30469C158.552 4.54427 158.359 4.75781 158.141 4.94531L157.352 4.38281C157.596 4.01302 157.779 3.63542 157.898 3.25C158.023 2.86458 158.086 2.44792 158.086 2V0.828125H159.5V1.97656Z" fill="black"/>
<path d="M149.234 13.1562C148.641 13.1562 148.094 13.0547 147.594 12.8516C147.099 12.6484 146.674 12.3646 146.32 12C145.966 11.6354 145.69 11.2031 145.492 10.7031C145.294 10.2031 145.195 9.65885 145.195 9.07031V8.74219C145.195 8.0599 145.305 7.45052 145.523 6.91406C145.742 6.3724 146.034 5.91406 146.398 5.53906C146.758 5.16927 147.167 4.88542 147.625 4.6875C148.089 4.48958 148.562 4.39062 149.047 4.39062C149.656 4.39062 150.188 4.4974 150.641 4.71094C151.099 4.91927 151.479 5.20833 151.781 5.57812C152.083 5.95312 152.307 6.39323 152.453 6.89844C152.604 7.40365 152.68 7.95052 152.68 8.53906V9.1875H146.641V9.24219C146.677 9.65365 146.758 10.0156 146.883 10.3281C147.013 10.6406 147.19 10.9167 147.414 11.1562C147.643 11.4115 147.919 11.612 148.242 11.7578C148.565 11.9036 148.922 11.9766 149.312 11.9766C149.828 11.9766 150.286 11.8724 150.688 11.6641C151.089 11.4557 151.422 11.1797 151.688 10.8359L152.57 11.5234C152.289 11.9505 151.867 12.3307 151.305 12.6641C150.747 12.9922 150.057 13.1562 149.234 13.1562ZM149.047 5.57812C148.755 5.57812 148.479 5.63281 148.219 5.74219C147.958 5.84635 147.724 6 147.516 6.20312C147.307 6.41146 147.13 6.66667 146.984 6.96875C146.844 7.26562 146.745 7.60938 146.688 8H151.234V7.92969C151.234 7.66927 151.185 7.39062 151.086 7.09375C150.987 6.79167 150.849 6.53125 150.672 6.3125C150.495 6.09375 150.271 5.91667 150 5.78125C149.734 5.64583 149.417 5.57812 149.047 5.57812Z" fill="black"/>
<path d="M138.047 13V5.66406H135.719V4.54688H138.047V3.95312C138.047 3.41146 138.125 2.9375 138.281 2.53125C138.443 2.11979 138.669 1.77604 138.961 1.5C139.247 1.22396 139.594 1.01562 140 0.875C140.406 0.734375 140.859 0.664062 141.359 0.664062C141.568 0.664062 141.773 0.677083 141.977 0.703125C142.18 0.723958 142.38 0.752604 142.578 0.789062C142.708 0.815104 142.839 0.84375 142.969 0.875C143.099 0.901042 143.232 0.932292 143.367 0.96875L143.195 2.16406C142.982 2.09115 142.732 2.02865 142.445 1.97656C142.164 1.91927 141.862 1.89062 141.539 1.89062C141.211 1.89062 140.919 1.93229 140.664 2.01562C140.414 2.09375 140.206 2.21354 140.039 2.375C139.862 2.54167 139.727 2.75781 139.633 3.02344C139.544 3.28906 139.5 3.59896 139.5 3.95312V4.54688H142.758V5.66406H139.5V13H138.047Z" fill="black"/>
<path d="M126.508 4.54688H130.828V11.75H133.586V13H126.508V11.75H129.383V5.80469H126.508V4.54688ZM129.195 2.32812C129.195 2.20312 129.214 2.08594 129.25 1.97656C129.292 1.86719 129.354 1.77344 129.438 1.69531C129.505 1.6276 129.591 1.57552 129.695 1.53906C129.805 1.4974 129.927 1.47656 130.062 1.47656C130.198 1.47656 130.318 1.4974 130.422 1.53906C130.526 1.57552 130.612 1.6276 130.68 1.69531C130.763 1.76823 130.826 1.85938 130.867 1.96875C130.909 2.07812 130.93 2.19792 130.93 2.32812C130.93 2.5625 130.857 2.75781 130.711 2.91406C130.565 3.07031 130.349 3.14844 130.062 3.14844C129.771 3.14844 129.552 3.07031 129.406 2.91406C129.266 2.75781 129.195 2.5625 129.195 2.32812Z" fill="black"/>
<path d="M118.305 11.7734H123.867V13H116.859V1.625H118.305V11.7734Z" fill="black"/>
<path d="M97.4531 13V4.54688H98.75L98.8516 5.79688C98.9766 5.61979 99.112 5.45833 99.2578 5.3125C99.4089 5.16146 99.5677 5.03125 99.7344 4.92188C99.9844 4.75521 100.255 4.6276 100.547 4.53906C100.844 4.44531 101.156 4.39583 101.484 4.39062C101.927 4.39062 102.328 4.45312 102.688 4.57812C103.052 4.70312 103.362 4.89844 103.617 5.16406C103.872 5.42969 104.068 5.76823 104.203 6.17969C104.344 6.58594 104.414 7.07031 104.414 7.63281V13H102.969V7.66406C102.969 7.28906 102.927 6.97135 102.844 6.71094C102.76 6.45052 102.638 6.23958 102.477 6.07812C102.31 5.91667 102.107 5.79948 101.867 5.72656C101.633 5.65365 101.362 5.61719 101.055 5.61719C100.789 5.61719 100.542 5.65625 100.312 5.73438C100.083 5.80729 99.8724 5.90885 99.6797 6.03906C99.5234 6.15365 99.3776 6.28646 99.2422 6.4375C99.112 6.58854 98.9974 6.75521 98.8984 6.9375V13H97.4531Z" fill="black"/>
<path d="M88.0703 4.54688H92.3906V11.75H95.1484V13H88.0703V11.75H90.9453V5.80469H88.0703V4.54688ZM90.7578 2.32812C90.7578 2.20312 90.776 2.08594 90.8125 1.97656C90.8542 1.86719 90.9167 1.77344 91 1.69531C91.0677 1.6276 91.1536 1.57552 91.2578 1.53906C91.3672 1.4974 91.4896 1.47656 91.625 1.47656C91.7604 1.47656 91.8802 1.4974 91.9844 1.53906C92.0885 1.57552 92.1745 1.6276 92.2422 1.69531C92.3255 1.76823 92.388 1.85938 92.4297 1.96875C92.4714 2.07812 92.4922 2.19792 92.4922 2.32812C92.4922 2.5625 92.4193 2.75781 92.2734 2.91406C92.1276 3.07031 91.9115 3.14844 91.625 3.14844C91.3333 3.14844 91.1146 3.07031 90.9688 2.91406C90.8281 2.75781 90.7578 2.5625 90.7578 2.32812Z" fill="black"/>
<path d="M36.4453 7.74219H31.6953V11.7734H37.2344V13H30.25V1.625H37.1641V2.85938H31.6953V6.51562H36.4453V7.74219Z" fill="black"/>
<path d="M27.7031 13H26.2344L21.8203 4.5L21.7969 13H20.3359V1.625H21.8047L26.2188 10.1094L26.2422 1.625H27.7031V13Z" fill="black"/>
<path d="M18.1094 1.625L18.125 9.32812C18.125 9.85938 18.0312 10.3568 17.8438 10.8203C17.6562 11.2839 17.3984 11.6875 17.0703 12.0312C16.7422 12.3802 16.3516 12.6562 15.8984 12.8594C15.4453 13.0573 14.9479 13.1562 14.4062 13.1562C13.8542 13.1562 13.3516 13.0573 12.8984 12.8594C12.4453 12.6615 12.0573 12.388 11.7344 12.0391C11.4115 11.6953 11.1589 11.2917 10.9766 10.8281C10.7943 10.3594 10.7005 9.85938 10.6953 9.32812L10.7109 1.625H12.0859L12.1172 9.32812C12.1224 9.66667 12.1745 9.99219 12.2734 10.3047C12.3776 10.6172 12.526 10.8932 12.7188 11.1328C12.9062 11.3724 13.1406 11.5651 13.4219 11.7109C13.7083 11.8568 14.0365 11.9297 14.4062 11.9297C14.776 11.9297 15.1016 11.8594 15.3828 11.7188C15.6641 11.5729 15.901 11.3776 16.0938 11.1328C16.2812 10.8932 16.4245 10.6172 16.5234 10.3047C16.6224 9.99219 16.6771 9.66667 16.6875 9.32812L16.7109 1.625H18.1094Z" fill="black"/>
<path d="M9.03125 2.85938H5.51562V13H4.10938V2.85938H0.59375V1.625H9.03125V2.85938Z" fill="black"/>
</svg>
